{
    "asset": {
        "generator": "FBX2glTF v0.9.7",
        "version": "2.0"
    },
    "scene": 0,
    "extensionsUsed": [
        "KHR_lights_punctual"
    ],
    "buffers": [
        {
            "byteLength": 113720,
            "uri": "buffer.bin"
        }
    ],
    "bufferViews": [
        {
            "buffer": 0,
            "byteLength": 25164,
            "byteOffset": 0,
            "target": 34963
        },
        {
            "buffer": 0,
            "byteLength": 30000,
            "byteOffset": 25164,
            "target": 34962
        },
        {
            "buffer": 0,
            "byteLength": 30000,
            "byteOffset": 55164,
            "target": 34962
        },
        {
            "buffer": 0,
            "byteLength": 20000,
            "byteOffset": 85164,
            "target": 34962
        },
        {
            "buffer": 0,
            "byteLength": 780,
            "byteOffset": 105164,
            "target": 34963
        },
        {
            "buffer": 0,
            "byteLength": 1056,
            "byteOffset": 105944,
            "target": 34962
        },
        {
            "buffer": 0,
            "byteLength": 1056,
            "byteOffset": 107000,
            "target": 34962
        },
        {
            "buffer": 0,
            "byteLength": 704,
            "byteOffset": 108056,
            "target": 34962
        },
        {
            "buffer": 0,
            "byteLength": 384,
            "byteOffset": 108760,
            "target": 34963
        },
        {
            "buffer": 0,
            "byteLength": 600,
            "byteOffset": 109144,
            "target": 34962
        },
        {
            "buffer": 0,
            "byteLength": 600,
            "byteOffset": 109744,
            "target": 34962
        },
        {
            "buffer": 0,
            "byteLength": 400,
            "byteOffset": 110344,
            "target": 34962
        },
        {
            "buffer": 0,
            "byteLength": 672,
            "byteOffset": 110744,
            "target": 34963
        },
        {
            "buffer": 0,
            "byteLength": 864,
            "byteOffset": 111416,
            "target": 34962
        },
        {
            "buffer": 0,
            "byteLength": 864,
            "byteOffset": 112280,
            "target": 34962
        },
        {
            "buffer": 0,
            "byteLength": 576,
            "byteOffset": 113144,
            "target": 34962
        }
    ],
    "scenes": [
        {
            "name": "Root Scene",
            "nodes": [
                0
            ]
        }
    ],
    "accessors": [
        {
            "componentType": 5123,
            "type": "SCALAR",
            "count": 12582,
            "bufferView": 0,
            "byteOffset": 0
        },
        {
            "componentType": 5126,
            "type": "VEC3",
            "count": 2500,
            "bufferView": 1,
            "byteOffset": 0,
            "min": [
                -0.170452997088432,
                -0.163621991872787,
                -0.000146791004226543
            ],
            "max": [
                0.170452997088432,
                0.302857995033264,
                0.513235032558441
            ]
        },
        {
            "componentType": 5126,
            "type": "VEC3",
            "count": 2500,
            "bufferView": 2,
            "byteOffset": 0
        },
        {
            "componentType": 5126,
            "type": "VEC2",
            "count": 2500,
            "bufferView": 3,
            "byteOffset": 0
        },
        {
            "componentType": 5123,
            "type": "SCALAR",
            "count": 390,
            "bufferView": 4,
            "byteOffset": 0
        },
        {
            "componentType": 5126,
            "type": "VEC3",
            "count": 88,
            "bufferView": 5,
            "byteOffset": 0,
            "min": [
                -0.100814998149872,
                -0.121458992362022,
                0.299076974391937
            ],
            "max": [
                0.100814998149872,
                -0.0478456020355225,
                0.365186989307404
            ]
        },
        {
            "componentType": 5126,
            "type": "VEC3",
            "count": 88,
            "bufferView": 6,
            "byteOffset": 0
        },
        {
            "componentType": 5126,
            "type": "VEC2",
            "count": 88,
            "bufferView": 7,
            "byteOffset": 0
        },
        {
            "componentType": 5123,
            "type": "SCALAR",
            "count": 192,
            "bufferView": 8,
            "byteOffset": 0
        },
        {
            "componentType": 5126,
            "type": "VEC3",
            "count": 50,
            "bufferView": 9,
            "byteOffset": 0,
            "min": [
                -0.0772986933588982,
                -0.122639998793602,
                0.361456990242004
            ],
            "max": [
                0.0772986933588982,
                -0.0680333003401756,
                0.415665000677109
            ]
        },
        {
            "componentType": 5126,
            "type": "VEC3",
            "count": 50,
            "bufferView": 10,
            "byteOffset": 0
        },
        {
            "componentType": 5126,
            "type": "VEC2",
            "count": 50,
            "bufferView": 11,
            "byteOffset": 0
        },
        {
            "componentType": 5123,
            "type": "SCALAR",
            "count": 336,
            "bufferView": 12,
            "byteOffset": 0
        },
        {
            "componentType": 5126,
            "type": "VEC3",
            "count": 72,
            "bufferView": 13,
            "byteOffset": 0,
            "min": [
                -0.0583320967853069,
                -0.144411996006966,
                0.298521995544434
            ],
            "max": [
                0.0583320967853069,
                -0.111478991806507,
                0.378518968820572
            ]
        },
        {
            "componentType": 5126,
            "type": "VEC3",
            "count": 72,
            "bufferView": 14,
            "byteOffset": 0
        },
        {
            "componentType": 5126,
            "type": "VEC2",
            "count": 72,
            "bufferView": 15,
            "byteOffset": 0
        }
    ],
    "images": [
        {
            "name": "pm0025_00_BodyA1.png",
            "uri": "pm0025_00_BodyA1.png"
        },
        {
            "name": "pm0025_00_BodyB1.png",
            "uri": "pm0025_00_BodyB1.png"
        },
        {
            "name": "pm0025_00_Eye1.png",
            "uri": "pm0025_00_Eye1.png"
        },
        {
            "name": "pm0025_00_Mouth1.png",
            "uri": "pm0025_00_Mouth1.png"
        }
    ],
    "samplers": [
        {}
    ],
    "textures": [
        {
            "name": "pm0025_00_BodyA1",
            "sampler": 0,
            "source": 0
        },
        {
            "name": "pm0025_00_BodyB1",
            "sampler": 0,
            "source": 1
        },
        {
            "name": "pm0025_00_Eye1",
            "sampler": 0,
            "source": 2
        },
        {
            "name": "pm0025_00_Mouth1",
            "sampler": 0,
            "source": 3
        }
    ],
    "materials": [
        {
            "name": "Material__160",
            "alphaMode": "OPAQUE",
            "extras": {
                "fromFBX": {
                    "shadingModel": "Phong",
                    "isTruePBR": false
                }
            },
            "pbrMetallicRoughness": {
                "baseColorTexture": {
                    "index": 0,
                    "texCoord": 0
                },
                "baseColorFactor": [
                    1.0,
                    1.0,
                    1.0,
                    1.0
                ],
                "metallicFactor": 0.400000005960464,
                "roughnessFactor": 0.70710676908493
            }
        },
        {
            "name": "Material__161",
            "alphaMode": "OPAQUE",
            "extras": {
                "fromFBX": {
                    "shadingModel": "Phong",
                    "isTruePBR": false
                }
            },
            "pbrMetallicRoughness": {
                "baseColorTexture": {
                    "index": 1,
                    "texCoord": 0
                },
                "baseColorFactor": [
                    1.0,
                    1.0,
                    1.0,
                    1.0
                ],
                "metallicFactor": 0.400000005960464,
                "roughnessFactor": 0.816496610641479
            }
        },
        {
            "name": "Material__163",
            "alphaMode": "OPAQUE",
            "extras": {
                "fromFBX": {
                    "shadingModel": "Phong",
                    "isTruePBR": false
                }
            },
            "pbrMetallicRoughness": {
                "baseColorTexture": {
                    "index": 2,
                    "texCoord": 0
                },
                "baseColorFactor": [
                    1.0,
                    1.0,
                    1.0,
                    1.0
                ],
                "metallicFactor": 0.400000005960464,
                "roughnessFactor": 0.816496610641479
            }
        },
        {
            "name": "Material__162",
            "alphaMode": "OPAQUE",
            "extras": {
                "fromFBX": {
                    "shadingModel": "Phong",
                    "isTruePBR": false
                }
            },
            "pbrMetallicRoughness": {
                "baseColorTexture": {
                    "index": 3,
                    "texCoord": 0
                },
                "baseColorFactor": [
                    1.0,
                    1.0,
                    1.0,
                    1.0
                ],
                "metallicFactor": 0.400000005960464,
                "roughnessFactor": 0.816496610641479
            }
        }
    ],
    "meshes": [
        {
            "name": "PikachuM_PikachuM",
            "primitives": [
                {
                    "material": 0,
                    "mode": 4,
                    "attributes": {
                        "NORMAL": 2,
                        "POSITION": 1,
                        "TEXCOORD_0": 3
                    },
                    "indices": 0
                }
            ]
        },
        {
            "name": "PikachuM_PikachuM",
            "primitives": [
                {
                    "material": 1,
                    "mode": 4,
                    "attributes": {
                        "NORMAL": 6,
                        "POSITION": 5,
                        "TEXCOORD_0": 7
                    },
                    "indices": 4
                }
            ]
        },
        {
            "name": "PikachuM_PikachuM",
            "primitives": [
                {
                    "material": 2,
                    "mode": 4,
                    "attributes": {
                        "NORMAL": 10,
                        "POSITION": 9,
                        "TEXCOORD_0": 11
                    },
                    "indices": 8
                }
            ]
        },
        {
            "name": "PikachuM_PikachuM",
            "primitives": [
                {
                    "material": 3,
                    "mode": 4,
                    "attributes": {
                        "NORMAL": 14,
                        "POSITION": 13,
                        "TEXCOORD_0": 15
                    },
                    "indices": 12
                }
            ]
        }
    ],
    "cameras": [
        {
            "name": "",
            "type": "perspective",
            "perspective": {
                "znear": 10.0,
                "zfar": 5000000.0,
                "aspectRatio": 1.33333337306976,
                "yfov": 0.785398185253143
            }
        }
    ],
    "nodes": [
        {
            "name": "RootNode",
            "translation": [
                0.0,
                0.0,
                0.0
            ],
            "rotation": [
                0.0,
                0.0,
                0.0,
                1.0
            ],
            "scale": [
                1.0,
                1.0,
                1.0
            ],
            "children": [
                1,
                2,
                7
            ]
        },
        {
            "name": "Camera_Perspective3",
            "translation": [
                -21.05419921875,
                27.6956005096436,
                20.6536998748779
            ],
            "rotation": [
                -0.09443598985672,
                -0.328935742378235,
                -0.0330800265073776,
                0.939036130905151
            ],
            "scale": [
                100.0,
                100.0,
                100.0
            ],
            "camera": 0
        },
        {
            "name": "XY_PikachuM",
            "translation": [
                0.0,
                0.0,
                0.0
            ],
            "rotation": [
                0.00845090672373772,
                0.0233951639384031,
                -0.399499446153641,
                0.916395902633667
            ],
            "scale": [
                100.0,
                100.0,
                100.0
            ],
            "children": [
                3,
                4,
                5,
                6
            ]
        },
        {
            "name": "PikachuM_PikachuM",
            "translation": [
                0.00319099985063076,
                0.0127980001270771,
                -0.0185839999467134
            ],
            "rotation": [
                -0.298461109399796,
                0.65429276227951,
                0.625857770442963,
                -0.301867485046387
            ],
            "scale": [
                1.0,
                1.0,
                1.0
            ],
            "mesh": 0
        },
        {
            "name": "PikachuM_PikachuM",
            "translation": [
                0.00319099985063076,
                0.0127980001270771,
                -0.0185839999467134
            ],
            "rotation": [
                -0.298461109399796,
                0.65429276227951,
                0.625857770442963,
                -0.301867485046387
            ],
            "scale": [
                1.0,
                1.0,
                1.0
            ],
            "mesh": 1
        },
        {
            "name": "PikachuM_PikachuM",
            "translation": [
                0.00319099985063076,
                0.0127980001270771,
                -0.0185839999467134
            ],
            "rotation": [
                -0.298461109399796,
                0.65429276227951,
                0.625857770442963,
                -0.301867485046387
            ],
            "scale": [
                1.0,
                1.0,
                1.0
            ],
            "mesh": 2
        },
        {
            "name": "PikachuM_PikachuM",
            "translation": [
                0.00319099985063076,
                0.0127980001270771,
                -0.0185839999467134
            ],
            "rotation": [
                -0.298461109399796,
                0.65429276227951,
                0.625857770442963,
                -0.301867485046387
            ],
            "scale": [
                1.0,
                1.0,
                1.0
            ],
            "mesh": 3
        },
        {
            "name": "LightPreset",
            "translation": [
                0.0458995848894119,
                26.3248310089111,
                5.12080478668213
            ],
            "rotation": [
                0.0,
                0.0,
                0.0,
                1.0
            ],
            "scale": [
                100.0,
                100.0,
                100.0
            ],
            "children": [
                8,
                9,
                10
            ]
        },
        {
            "name": "KeyLight",
            "translation": [
                -2.80906248092651,
                3.54128265380859,
                2.80906248092651
            ],
            "rotation": [
                0.348856955766678,
                -0.213515192270279,
                0.21351520717144,
                0.887198626995087
            ],
            "scale": [
                1.0,
                1.0,
                1.0
            ],
            "extensions": {
                "KHR_lights_punctual": {
                    "light": 0
                }
            }
        },
        {
            "name": "BackLight",
            "translation": [
                -3.16875958442688,
                2.25301718711853,
                -3.63389873504639
            ],
            "rotation": [
                -0.0942616760730743,
                -0.528620421886444,
                0.528620421886444,
                0.657446265220642
            ],
            "scale": [
                1.0,
                1.0,
                1.0
            ],
            "extensions": {
                "KHR_lights_punctual": {
                    "light": 1
                }
            }
        },
        {
            "name": "FillLight",
            "translation": [
                7.93279933929443,
                6.45186519622803,
                0.0
            ],
            "rotation": [
                0.184513300657272,
                0.387902230024338,
                -0.387902230024338,
                0.81548672914505
            ],
            "scale": [
                1.0,
                1.0,
                1.0
            ],
            "extensions": {
                "KHR_lights_punctual": {
                    "light": 2
                }
            }
        }
    ],
    "extensions": {
        "KHR_lights_punctual": {
            "lights": [
                {
                    "name": "",
                    "color": [
                        1.0,
                        0.984313726425171,
                        0.95686274766922
                    ],
                    "intensity": 1.0,
                    "type": "directional"
                },
                {
                    "name": "",
                    "color": [
                        0.466666668653488,
                        0.600000023841858,
                        0.713725507259369
                    ],
                    "intensity": 0.75,
                    "type": "directional"
                },
                {
                    "name": "",
                    "color": [
                        0.898039221763611,
                        0.831372559070587,
                        0.705882370471954
                    ],
                    "intensity": 0.850000023841858,
                    "type": "directional"
                }
            ]
        }
    }
}