{
    "asset": {
        "generator": "FBX2glTF v0.9.7",
        "version": "2.0"
    },
    "scene": 0,
    "buffers": [
        {
            "byteLength": 31864,
            "uri": "buffer.bin"
        }
    ],
    "bufferViews": [
        {
            "buffer": 0,
            "byteLength": 36,
            "byteOffset": 0,
            "target": 34963
        },
        {
            "buffer": 0,
            "byteLength": 144,
            "byteOffset": 36,
            "target": 34962
        },
        {
            "buffer": 0,
            "byteLength": 144,
            "byteOffset": 180,
            "target": 34962
        },
        {
            "buffer": 0,
            "byteLength": 96,
            "byteOffset": 324,
            "target": 34962
        },
        {
            "buffer": 0,
            "byteLength": 6804,
            "byteOffset": 420,
            "target": 34963
        },
        {
            "buffer": 0,
            "byteLength": 9240,
            "byteOffset": 7224,
            "target": 34962
        },
        {
            "buffer": 0,
            "byteLength": 9240,
            "byteOffset": 16464,
            "target": 34962
        },
        {
            "buffer": 0,
            "byteLength": 6160,
            "byteOffset": 25704,
            "target": 34962
        }
    ],
    "scenes": [
        {
            "name": "Root Scene",
            "nodes": [
                0
            ]
        }
    ],
    "accessors": [
        {
            "componentType": 5123,
            "type": "SCALAR",
            "count": 18,
            "bufferView": 0,
            "byteOffset": 0
        },
        {
            "componentType": 5126,
            "type": "VEC3",
            "count": 12,
            "bufferView": 1,
            "byteOffset": 0,
            "min": [
                -0.0120307998731732,
                0.120002001523972,
                0.0585598982870579
            ],
            "max": [
                0.0120307998731732,
                0.139117002487183,
                0.0773195996880531
            ]
        },
        {
            "componentType": 5126,
            "type": "VEC3",
            "count": 12,
            "bufferView": 2,
            "byteOffset": 0
        },
        {
            "componentType": 5126,
            "type": "VEC2",
            "count": 12,
            "bufferView": 3,
            "byteOffset": 0
        },
        {
            "componentType": 5123,
            "type": "SCALAR",
            "count": 3402,
            "bufferView": 4,
            "byteOffset": 0
        },
        {
            "componentType": 5126,
            "type": "VEC3",
            "count": 770,
            "bufferView": 5,
            "byteOffset": 0,
            "min": [
                -0.11837499588728,
                -0.000736459973268211,
                -0.200869992375374
            ],
            "max": [
                0.11837499588728,
                0.16296498477459,
                0.0895233973860741
            ]
        },
        {
            "componentType": 5126,
            "type": "VEC3",
            "count": 770,
            "bufferView": 6,
            "byteOffset": 0
        },
        {
            "componentType": 5126,
            "type": "VEC2",
            "count": 770,
            "bufferView": 7,
            "byteOffset": 0
        }
    ],
    "images": [
        {
            "name": "lizardon_0_0.tga",
            "uri": "lizardon_0_0.tga"
        }
    ],
    "samplers": [
        {}
    ],
    "textures": [
        {
            "name": "lizardon_0_0",
            "sampler": 0,
            "source": 0
        }
    ],
    "materials": [
        {
            "name": "mat_1",
            "alphaMode": "OPAQUE",
            "extras": {
                "fromFBX": {
                    "shadingModel": "Phong",
                    "isTruePBR": false
                }
            },
            "pbrMetallicRoughness": {
                "baseColorTexture": {
                    "index": 0,
                    "texCoord": 0
                },
                "baseColorFactor": [
                    1.0,
                    1.0,
                    1.0,
                    1.0
                ],
                "metallicFactor": 0.400000005960464,
                "roughnessFactor": 0.63245552778244
            }
        },
        {
            "name": "mat_0",
            "alphaMode": "OPAQUE",
            "extras": {
                "fromFBX": {
                    "shadingModel": "Phong",
                    "isTruePBR": false
                }
            },
            "pbrMetallicRoughness": {
                "baseColorTexture": {
                    "index": 0,
                    "texCoord": 0
                },
                "baseColorFactor": [
                    1.0,
                    1.0,
                    1.0,
                    1.0
                ],
                "metallicFactor": 0.400000005960464,
                "roughnessFactor": 0.63245552778244
            }
        }
    ],
    "meshes": [
        {
            "name": "lizardon_mat_1_lizardon_mat_1",
            "primitives": [
                {
                    "material": 0,
                    "mode": 4,
                    "attributes": {
                        "NORMAL": 2,
                        "POSITION": 1,
                        "TEXCOORD_0": 3
                    },
                    "indices": 0
                }
            ]
        },
        {
            "name": "lizardon_mat_0_lizardon_mat_0",
            "primitives": [
                {
                    "material": 1,
                    "mode": 4,
                    "attributes": {
                        "NORMAL": 6,
                        "POSITION": 5,
                        "TEXCOORD_0": 7
                    },
                    "indices": 4
                }
            ]
        }
    ],
    "cameras": [
        {
            "name": "",
            "type": "perspective",
            "perspective": {
                "znear": 10.0,
                "zfar": 5000000.0,
                "aspectRatio": 1.33333337306976,
                "yfov": 0.785398185253143
            }
        }
    ],
    "nodes": [
        {
            "name": "RootNode",
            "translation": [
                0.0,
                0.0,
                0.0
            ],
            "rotation": [
                0.0,
                0.0,
                0.0,
                1.0
            ],
            "scale": [
                1.0,
                1.0,
                1.0
            ],
            "children": [
                1,
                2
            ]
        },
        {
            "name": "Camera_Perspective2",
            "translation": [
                -12.366099357605,
                12.0820989608765,
                22.2080001831055
            ],
            "rotation": [
                -0.0766726285219193,
                -0.21152338385582,
                -0.0166472308337688,
                0.974218606948853
            ],
            "scale": [
                100.0,
                100.0,
                100.0
            ],
            "camera": 0
        },
        {
            "name": "BR_Charizard",
            "translation": [
                0.0,
                0.0,
                0.0
            ],
            "rotation": [
                0.0625205263495445,
                0.0,
                0.0,
                0.998043656349182
            ],
            "scale": [
                100.0,
                100.0,
                100.0
            ],
            "children": [
                3,
                4
            ]
        },
        {
            "name": "lizardon_mat_1_lizardon_mat_1",
            "translation": [
                0.0,
                0.0,
                0.0
            ],
            "rotation": [
                6.93889390390723e-18,
                0.0,
                0.0,
                1.0
            ],
            "scale": [
                1.0,
                1.0,
                1.0
            ],
            "mesh": 0
        },
        {
            "name": "lizardon_mat_0_lizardon_mat_0",
            "translation": [
                0.0,
                0.0,
                0.0
            ],
            "rotation": [
                6.93889390390723e-18,
                0.0,
                0.0,
                1.0
            ],
            "scale": [
                1.0,
                1.0,
                1.0
            ],
            "mesh": 1
        }
    ]
}